# Blender v2.63 (sub 0) OBJ File: 'pyrramid.blend'
# www.blender.org
mtllib pyramid.mtl
o Cone
v -0.024781 9.856519 -0.092506
v -4.975258 -0.000546 -5.019635
v 4.968951 -0.000546 -5.050430
v -5.143124 0.045262 4.817743
v 4.906567 -0.021566 4.817743
vn -0.002768 0.448222 -0.893918
vn 0.002968 0.446310 0.894873
vn -0.889999 0.455633 -0.017309
vn 0.893370 0.449272 0.006605
vn -0.003341 -0.999994 0.001219
usemtl 
s off
f 2//1 1//1 3//1
f 1//2 4//2 5//2
f 4//3 1//3 2//3
f 3//4 1//4 5//4
f 4//5 2//5 3//5
f 4//5 3//5 5//5
